# Blender v2.90.1 OBJ File: ''
# www.blender.org
v -1.000000 -1.000000 -0.000000
v 1.000000 -1.000000 -0.000000
v -1.000000 1.000000 0.000000
v -7.000000 1.131371 0.000000
v -7.000000 -1.131371 0.000000
v -9.494753 0.000000 -0.000000
v -4.505248 -0.000000 0.000000
v -4.000000 1.000000 0.000000
v -2.000000 -1.000000 -0.000000
v -4.000000 -1.000000 -0.000000
v -2.000000 1.000000 0.000000
v 5.131371 -0.000000 0.000000
v 2.868629 -0.000000 -0.000000
v 4.000000 2.494752 -0.000000
v 4.000000 -2.494752 0.000000
v 8.131371 -0.000000 0.000000
v 5.868629 -0.000000 -0.000000
v 7.000000 2.494752 -0.000000
v 7.000000 -2.494752 0.000000
vt 0.000179 0.808135
vt 0.191865 0.616449
vt 0.191865 0.999821
vt 0.279496 0.371471
vt 0.000179 0.244800
vt 0.279496 0.000179
vt 0.463307 0.887534
vt 0.192222 0.616449
vt 0.463307 0.616450
vt 0.559527 0.244800
vt 0.838844 0.371470
vt 0.559527 0.616092
vt 0.279853 0.244800
vt 0.559170 0.371470
vt 0.279853 0.616092
vt 0.000179 0.616092
vt 0.192222 0.887534
vt 0.838844 0.000179
vt 0.559170 0.000179
vn 0.0000 -0.0000 1.0000
s off
f 1/1/1 2/2/1 3/3/1
f 5/4/1 4/5/1 6/6/1
f 9/7/1 8/8/1 10/9/1
f 13/10/1 12/11/1 14/12/1
f 17/13/1 16/14/1 18/15/1
f 5/4/1 7/16/1 4/5/1
f 9/7/1 11/17/1 8/8/1
f 13/10/1 15/18/1 12/11/1
f 17/13/1 19/19/1 16/14/1
